<svg id="Layer_1" enable-background="new 0 0 128 128" height="35" viewBox="0 0 128 128" width="35" xmlns="http://www.w3.org/2000/svg" xmlns:xlink="http://www.w3.org/1999/xlink"><linearGradient id="SVGID_1_" gradientTransform="matrix(1 0 0 -1 0 130)" gradientUnits="userSpaceOnUse" x1="115.325" x2="3.85" y1="5.85" y2="117.325"><stop offset="0" stop-color="#f7502f"/><stop offset="1" stop-color="#fcbc2e"/></linearGradient><path d="m123.3 115.5c0 1-.8 1.7-1.7 1.8h-107.3v4.3c0 1-.8 1.8-1.8 1.8s-1.8-.8-1.8-1.8v-4.3h-4.2c-1 0-1.8-.8-1.8-1.8s.8-1.8 1.8-1.8h4.3v-107.2c0-1 .8-1.8 1.8-1.8s1.8.8 1.8 1.8v107.3h107.3c.8-.1 1.5.7 1.6 1.7zm-103.8-6.5v-30c0-1 .8-1.7 1.7-1.8h13.5c1 0 1.7.8 1.8 1.7v30c0 1-.8 1.7-1.7 1.8h-13.5c-1 .1-1.8-.7-1.8-1.7zm3.5-1.7h10v-26.5h-10zm25.3-26.3c-1 0-1.7.8-1.8 1.7v26.3c0 1 .8 1.7 1.7 1.8h13.5c1 0 1.7-.8 1.8-1.7v-41.1c0-1-.8-1.7-1.7-1.8h-13.5c-1 0-1.7.8-1.8 1.7v6.1c0 1 .8 1.8 1.8 1.8s1.8-.8 1.8-1.8v-4.3h10v37.5h-10.1v-24.5c0-.9-.8-1.7-1.7-1.7zm40.5-25.7c1 0 1.7.8 1.8 1.7v52c0 1-.8 1.7-1.7 1.8h-13.6c-1 0-1.7-.8-1.8-1.7v-52c0-1 .8-1.7 1.7-1.8zm-1.8 3.5h-10v48.4h10zm28.8 18.5c-1 0-1.7.8-1.8 1.7v3.7c0 1 .8 1.8 1.8 1.8s1.8-.8 1.8-1.8v-3.7c-.1-1-.9-1.7-1.8-1.7zm-15.3-42.1v73.8c0 1 .8 1.7 1.7 1.8h13.5c1 0 1.7-.8 1.8-1.7v-20.6c0-1-.8-1.8-1.8-1.8s-1.8.8-1.8 1.8v18.7h-10v-70.3h10v35.2c0 1 .8 1.8 1.8 1.8s1.8-.8 1.8-1.8v-36.9c0-1-.8-1.8-1.8-1.8h-13.5c-.9 0-1.7.8-1.7 1.8zm-78.4 32.4 84.6-45.8-.5 1.7c-.3.9.3 1.9 1.2 2.2.2 0 .3.1.5.1.8 0 1.5-.5 1.7-1.3l1.7-5.7c0-.1.2-.8-.1-1.3-.4-.7-.9-.8-1-.8l-5.8-1.7c-.9-.3-1.9.3-2.2 1.2s.3 1.9 1.2 2.2l1.7.5-84.7 45.6c-.8.5-1.2 1.5-.7 2.4.8 1.3 2.1.8 2.4.7z" fill="url(#SVGID_1_)"/></svg>