<svg id="Capa_1" data-name="Capa 1" xmlns="http://www.w3.org/2000/svg" viewBox="0 0 124 124"><defs><style>.cls-1{fill:#475758;}.cls-2{fill:#aaf70f;stroke:#aaf70f;stroke-miterlimit:10;}.cls-3{fill:#ececec;}</style></defs><title>Autoconsumo</title><circle class="cls-1" cx="62" cy="62" r="62"/><path class="cls-2" d="M86.94,95.74a2.3,2.3,0,0,1-1.89,1.92H46.22a2.33,2.33,0,0,1-1.91-1.92V91.39H52L50.85,78.85H35.63l-1.2,12.54h7.38v4.35a4.38,4.38,0,0,0,4.41,4.42H85.05a4.37,4.37,0,0,0,4.4-4.42V93.9h5V91.39H86.94Z" transform="translate(-2 -2)"/><circle class="cls-2" cx="86.04" cy="28.03" r="1.49"/><path class="cls-2" d="M104.44,32a16.23,16.23,0,0,0-12-4.58,16.63,16.63,0,0,0-15.78,16,16.25,16.25,0,0,0,4.6,11.76,16.2,16.2,0,0,1,2.61,3.6H92V48a3.83,3.83,0,0,1-3.18-4.21,4.39,4.39,0,1,1,8.77,0c0,2-1.83,3.59-3.08,4.21V58.79h7.78a14.92,14.92,0,0,1,2.54-3.49A16.4,16.4,0,0,0,104.44,32Z" transform="translate(-2 -2)"/><path class="cls-2" d="M102,61.3H84.09c-.82,0-1.49,1.06-1.49,1.88s.67,1.88,1.49,1.88H102c.83,0,1.5-1.06,1.5-1.88S102.84,61.3,102,61.3Z" transform="translate(-2 -2)"/><path class="cls-2" d="M92,73.53v14.1h-5v2.51h7.52V73.53a9.2,9.2,0,0,0,5.91-6H85.74A7.54,7.54,0,0,0,92,73.53Z" transform="translate(-2 -2)"/><polygon class="cls-3" points="15 89.39 28.43 89.39 29.63 76.85 16.14 76.85 15 89.39"/><polygon class="cls-3" points="16.42 74.34 29.93 74.34 31.12 61.81 17.55 61.81 16.42 74.34"/><polygon class="cls-3" points="35.62 48.02 34.42 59.3 46.05 59.3 44.86 48.02 35.62 48.02"/><polygon class="cls-3" points="18.97 48.02 17.84 59.3 31.42 59.3 32.61 48.02 18.97 48.02"/><polygon class="cls-3" points="52.04 89.39 65.47 89.39 64.34 76.85 50.85 76.85 52.04 89.39"/><polygon class="cls-3" points="32.93 74.34 47.55 74.34 46.35 61.81 34.12 61.81 32.93 74.34"/><polygon class="cls-3" points="50.55 74.34 64.06 74.34 62.92 61.81 49.35 61.81 50.55 74.34"/><polygon class="cls-3" points="49.06 59.3 62.64 59.3 61.5 48.02 47.86 48.02 49.06 59.3"/><path class="cls-3" d="M85.94,95.74a2.3,2.3,0,0,1-1.89,1.92H45.22a2.33,2.33,0,0,1-1.91-1.92V91.39H51L49.85,78.85H34.63l-1.2,12.54h7.38v4.35a4.38,4.38,0,0,0,4.41,4.42H84.05a4.37,4.37,0,0,0,4.4-4.42V93.9h5V91.39H85.94Z" transform="translate(-2 -2)"/><circle class="cls-3" cx="85.04" cy="28.03" r="1.49"/><path class="cls-3" d="M103.44,32a16.23,16.23,0,0,0-12-4.58,16.63,16.63,0,0,0-15.78,16,16.25,16.25,0,0,0,4.6,11.76,16.2,16.2,0,0,1,2.61,3.6H91V48a3.83,3.83,0,0,1-3.18-4.21,4.39,4.39,0,1,1,8.77,0c0,2-1.83,3.59-3.08,4.21V58.79h7.78a14.92,14.92,0,0,1,2.54-3.49A16.4,16.4,0,0,0,103.44,32Z" transform="translate(-2 -2)"/><path class="cls-3" d="M101,61.3H83.09c-.82,0-1.49,1.06-1.49,1.88s.67,1.88,1.49,1.88H101c.83,0,1.5-1.06,1.5-1.88S101.84,61.3,101,61.3Z" transform="translate(-2 -2)"/><path class="cls-3" d="M91,73.53v14.1h-5v2.51h7.52V73.53a9.2,9.2,0,0,0,5.91-6H84.74A7.54,7.54,0,0,0,91,73.53Z" transform="translate(-2 -2)"/></svg>