<svg id="Capa_1" data-name="Capa 1" xmlns="http://www.w3.org/2000/svg" viewBox="0 0 100 100">
<circle fill="#475758" cx="48.55" cy="50.55" r="45.01"/>
<rect fill="#303c3c" x="22" y="31" width="18" height="44" rx="8.16" ry="8.16"/>
<path fill="#303c3c" d="M52,70a5,5,0,0,1-5,5h0a5,5,0,0,1-5-5V54a5,5,0,0,1,5-5h0a5,5,0,0,1,5,5V70Z"/>
<rect fill="#ebecee" x="20" y="31" width="18" height="44" rx="8.16" ry="8.16"/>
<rect fill="#303c3c" x="73" y="59" width="6" height="15" rx="2.98" ry="2.98"/>
<path fill="#ebecee" stroke="#b3ff06" stroke-miterlimit="10" stroke-width="2px" d="M50,70a5,5,0,0,1-5,5h0a5,5,0,0,1-5-5V54a5,5,0,0,1,5-5h0a5,5,0,0,1,5,5V70Z"/>
<rect fill="#ebecee" stroke="#b3ff06" stroke-miterlimit="10" stroke-width="2px" x="71" y="59" width="6" height="15" rx="2.97" ry="2.97"/>
<rect fill="#303c3c" x="56" y="40" width="14" height="34" rx="6.8" ry="6.8"/>
<rect fill="#ebecee" x="54" y="40" width="14" height="34" rx="6.8" ry="6.8"/>
</svg>
