<svg id="Capa_1" data-name="Capa 1" xmlns="http://www.w3.org/2000/svg" viewBox="0 0 61.5 61.5">
    <title>
        CO2 selec
    </title>
    <path d="M62.5,40.64a15.71,15.71,0,0,1-15.69,15.7,15.87,15.87,0,0,1-5.63-1,12.92,12.92,0,0,1-3.87,4.64,12.75,12.75,0,0,1-5.06,2.29,13.14,13.14,0,0,1-2.67.27,12.91,12.91,0,0,1-11.89-7.84A11.81,11.81,0,0,1,5.91,34.72a13.56,13.56,0,0,1,9.65-23.08,13.26,13.26,0,0,1,2.44.22,16.38,16.38,0,0,1,5.18-6.62A16,16,0,0,1,32.25,2h.63A16.14,16.14,0,0,1,48.19,13a11.83,11.83,0,0,1,9,15.9A15.77,15.77,0,0,1,62.5,40.64Zm0,0" transform="translate(-1.5 -1.5)" style="stroke:#000;fill:#1d1d1b;stroke-miterlimit:10"/>
    <path style="stroke:#000;stroke-miterlimit:10;fill:#fff" d="M34.84,21.21a6.41,6.41,0,0,0-6.4,6.4V34.9a6.4,6.4,0,0,0,12.8,0V27.61a6.41,6.41,0,0,0-6.4-6.4ZM37.7,34.9a2.86,2.86,0,0,1-5.45,1.19A2.8,2.8,0,0,1,32,34.9V27.61a2.76,2.76,0,0,1,.26-1.19,2.85,2.85,0,0,1,5.45,1.19Zm0,0" transform="translate(-1.5 -1.5)"/>
    <path style="stroke:#000;stroke-miterlimit:10;fill:#fff" d="M20.9,41.3a6.41,6.41,0,0,1-6.4-6.4V27.61a6.4,6.4,0,0,1,12.8,0H23.76a2.86,2.86,0,1,0-5.71,0V34.9a2.86,2.86,0,0,0,5.71,0H27.3a6.41,6.41,0,0,1-6.4,6.4Zm0,0" transform="translate(-1.5 -1.5)"/>
    <path style="stroke:#000;stroke-miterlimit:10;fill:#fff" d="M52.46,46.36h-9.8V44.59a4.21,4.21,0,0,1,1.82-3.47l4.22-2.9a1.23,1.23,0,0,0,.54-1,1.52,1.52,0,1,0-3,0v.85H42.66V37.2a5.07,5.07,0,0,1,10.13,0,4.77,4.77,0,0,1-2.08,3.94l-2.43,1.68h4.18Zm0,0" transform="translate(-1.5 -1.5)"/>
</svg>
