<svg id="Capa_1" data-name="Capa 1" xmlns="http://www.w3.org/2000/svg" viewBox="0 0 62.01 62">
    <title>
        Graph bar selec
    </title>
    <path style="fill:#1b1b1b;stroke:#000;stroke-miterlimit:10" d="M3.58,25.46H16.65a2.19,2.19,0,0,1,2.19,2.18V60.32a2.18,2.18,0,0,1-2.19,2.18H3.58A2.18,2.18,0,0,1,1.4,60.32V27.64A2.19,2.19,0,0,1,3.58,25.46Z" transform="translate(-0.9 -1)"/>
    <path style="fill:#1b1b1b;stroke:#000;stroke-miterlimit:10" d="M25.37,1.5H38.44a2.18,2.18,0,0,1,2.18,2.18V60.32a2.18,2.18,0,0,1-2.18,2.18H25.37a2.18,2.18,0,0,1-2.18-2.18V3.67A2.18,2.18,0,0,1,25.37,1.5Z" transform="translate(-0.9 -1)"/>
    <path style="stroke:#000;fill:#1b1b1b;stroke-miterlimit:10" d="M47.16,18.92H60.23a2.18,2.18,0,0,1,2.18,2.19V60.32a2.18,2.18,0,0,1-2.18,2.18H47.16A2.18,2.18,0,0,1,45,60.32V21.11A2.17,2.17,0,0,1,47.16,18.92Z" transform="translate(-0.9 -1)"/>
</svg>
