<svg id="Capa_1" data-name="Capa 1" xmlns="http://www.w3.org/2000/svg" viewBox="0 0 60.5 60.5">
    <defs>
        <style>
        </style>
    </defs>
    <title>
        Energyclass selec
    </title>
    <path style="stroke:#000;fill:#1b1b1b;stroke-miterlimit:10" d="M33.87,9.48l-7-7A1.72,1.72,0,0,0,25.66,2H4.74A1.74,1.74,0,0,0,3,3.74v14a1.74,1.74,0,0,0,1.74,1.74H29.15a1.75,1.75,0,0,0,1.56-1l3.48-7a1.74,1.74,0,0,0-.32-2Zm-11.7,3a1.75,1.75,0,1,1,1.75-1.74,1.74,1.74,0,0,1-1.75,1.74Zm0,0" transform="translate(-2.5 -1.5)"/>
    <path style="stroke:#000;fill:#1b1b1b;stroke-miterlimit:10" d="M47.81,30.63l-7-7a1.73,1.73,0,0,0-1.23-.51H4.74A1.74,1.74,0,0,0,3,24.89v14a1.74,1.74,0,0,0,1.74,1.74H43.09a1.74,1.74,0,0,0,1.56-1l3.49-7a1.76,1.76,0,0,0-.33-2Zm-11.69,3a1.75,1.75,0,1,1,1.74-1.74,1.74,1.74,0,0,1-1.74,1.74Zm0,0" transform="translate(-2.5 -1.5)"/>
    <path style="stroke:#000;fill:#1b1b1b;stroke-miterlimit:10" d="M62,51.55l-7-7a1.74,1.74,0,0,0-1.24-.51h-49A1.74,1.74,0,0,0,3,45.81V59.76A1.74,1.74,0,0,0,4.74,61.5H57.27a1.75,1.75,0,0,0,1.56-1l3.49-7a1.75,1.75,0,0,0-.33-2Zm-11.69,3A1.75,1.75,0,1,1,52,52.78a1.75,1.75,0,0,1-1.74,1.75Zm0,0" transform="translate(-2.5 -1.5)"/>
</svg>
