<svg width="24px" height="24px" id="Capa_1" data-name="Capa 1" xmlns="http://www.w3.org/2000/svg" viewBox="0 0 100 100">
<path fill="#525252" stroke="#8f8f8f" stroke-miterlimit="10" stroke-width="0.5px" d="M39.74,24.11L38,22.36a2,2,0,0,1,0-2.84L52.37,5.13a2,2,0,0,1,2.84,0L57,6.88a2,2,0,0,1,0,2.84L42.58,24.11A2,2,0,0,1,39.74,24.11Z"/>
<path fill="#525252" stroke="#8f8f8f" stroke-miterlimit="10" stroke-width="0.5px" d="M71.9,56.28l-1.75-1.75a2,2,0,0,1,0-2.84L84.54,37.3a2,2,0,0,1,2.84,0L89.13,39a2,2,0,0,1,0,2.84L74.74,56.28A2,2,0,0,1,71.9,56.28Z"/>
<path fill="#525252" stroke="#8f8f8f" stroke-miterlimit="10" stroke-width="0.5px" d="M84.54,34.45l-2-2a1.61,1.61,0,0,0-2.28,0,1.63,1.63,0,0,1-2.31,0L61.83,16.34a1.61,1.61,0,0,1,0-2.28,1.63,1.63,0,0,0,0-2.31l-2-2a2,2,0,0,0-2.84,0L42.58,24.11a2,2,0,0,0,0,2.84l2,2a1.61,1.61,0,0,0,2.28,0,1.63,1.63,0,0,1,2.31,0l2.59,2.59a2.83,2.83,0,0,1,0,4L38.86,48.51l-2.3-2.3A3.25,3.25,0,0,0,32,50.8l2.3,2.3L18.39,69a8.32,8.32,0,0,1-3.86,2.19L9.8,72.35a8.32,8.32,0,0,0-3.86,2.19l-0.53.53a8.32,8.32,0,0,0,0,11.77l2,2a8.32,8.32,0,0,0,11.76,0l0.53-.53a8.32,8.32,0,0,0,2.19-3.86l1.18-4.72a8.32,8.32,0,0,1,2.19-3.86L41.16,60l2.3,2.3A3.25,3.25,0,1,0,48,57.7l-2.3-2.3L58.68,42.47a2.83,2.83,0,0,1,4,0l2.59,2.59a1.61,1.61,0,0,1,0,2.28,1.63,1.63,0,0,0,0,2.31l2,2a2,2,0,0,0,2.84,0L84.53,37.3A2,2,0,0,0,84.54,34.45Z"/>
<path fill="#525252" stroke="#8f8f8f" stroke-miterlimit="10" d="M97.5,97.5h-35V96.79S67.44,86.5,72.83,86.5H87.45c5.38,0,10.05,5.42,10.05,10.29V97.5Z"/>
<path fill="#525252" stroke="#8f8f8f" stroke-miterlimit="10" d="M90.7,86.5H69.58c-0.9,0-1.62-.1-1.62-1s0.73-1,1.62-1H90.7c0.9,0,1.62.1,1.62,1S91.59,86.5,90.7,86.5Z"/></svg>
