<svg id="Capa_1" data-name="Capa 1" xmlns="http://www.w3.org/2000/svg" viewBox="0 0 31.85 62">
    <title>
        Money selec
    </title>
    <path d="M29.5,29h6.16A12.27,12.27,0,0,1,48,41.14V44.2A12.27,12.27,0,0,1,35.66,56.39v3.06a3.09,3.09,0,0,1-6.17,0V56.39A12.27,12.27,0,0,1,17.15,44.2a3.09,3.09,0,0,1,6.18,0,6.12,6.12,0,0,0,6.16,6.09h6.16A6.12,6.12,0,0,0,41.8,44.2V41.14a6.12,6.12,0,0,0-6.15-6.09H29.49A12.27,12.27,0,0,1,17.15,22.86V19.8A12.27,12.27,0,0,1,29.49,7.61V4.55a3.09,3.09,0,0,1,6.17,0V7.61A12.27,12.27,0,0,1,48,19.8a3.09,3.09,0,0,1-6.18,0,6.12,6.12,0,0,0-6.16-6.09H29.5a6.12,6.12,0,0,0-6.15,6.09v3.06A6.12,6.12,0,0,0,29.5,29Z" transform="translate(-16.65 -1)" style="stroke:#000;fill:#1b1b1b;stroke-miterlimit:10"/>
</svg>
