<svg id="Capa_1" data-name="Capa 1" xmlns="http://www.w3.org/2000/svg" viewBox="0 0 124.64 124.64">
    <title>
        Law selec
    </title>
    <path style="fill:none;stroke:#1b1b1b;stroke-miterlimit:10;stroke-width:3" d="M54.61,29.78,52.1,27.27a2.89,2.89,0,0,1,0-4.07L72.7,2.61a2.87,2.87,0,0,1,4.06,0l2.51,2.51a2.87,2.87,0,0,1,0,4.06L58.68,29.78a2.89,2.89,0,0,1-4.07,0Zm0,0" transform="translate(-2 -1.27)"/>
    <path style="fill:none;stroke:#1b1b1b;stroke-miterlimit:10;stroke-width:3" d="M100.64,75.81l-2.5-2.51a2.87,2.87,0,0,1,0-4.07l20.59-20.59a2.87,2.87,0,0,1,4.06,0l2.51,2.51a2.87,2.87,0,0,1,0,4.06l-20.59,20.6a2.89,2.89,0,0,1-4.07,0Zm0,0" transform="translate(-2 -1.27)"/>
    <path d="M118.73,44.57l-2.91-2.9a2.31,2.31,0,0,0-3.27,0,2.31,2.31,0,0,1-3.3,0l-23-23a2.3,2.3,0,0,1,0-3.27,2.32,2.32,0,0,0,0-3.3L83.34,9.2a2.87,2.87,0,0,0-4.07,0L58.68,29.78a2.9,2.9,0,0,0,0,4.07l2.9,2.9a2.31,2.31,0,0,0,3.26,0,2.33,2.33,0,0,1,3.32,0l3.71,3.71a4,4,0,0,1,0,5.72L53.35,64.69,50.07,61.4A4.65,4.65,0,0,0,43.5,68l3.28,3.29L24.06,94a12,12,0,0,1-5.53,3.13L11.77,98.8a12,12,0,0,0-5.52,3.14l-.77.76a11.91,11.91,0,0,0,0,16.83l2.9,2.9a11.91,11.91,0,0,0,16.83,0l.75-.76a11.84,11.84,0,0,0,3.14-5.53l1.69-6.76a12,12,0,0,1,3.13-5.53L56.65,81.13l3.28,3.28a4.65,4.65,0,0,0,6.58-6.57l-3.29-3.28,18.5-18.51a4,4,0,0,1,5.73,0l3.72,3.71a2.32,2.32,0,0,1,0,3.27,2.32,2.32,0,0,0,0,3.31l2.89,2.89a2.85,2.85,0,0,0,4.06,0l20.6-20.59a2.88,2.88,0,0,0,0-4.07Zm0,0" style="stroke:#000;fill:#1b1b1b;stroke-miterlimit:10;stroke-width:2" transform="translate(-2 -1.27)"/>
</svg>
