<?xml version="1.0"?>
<svg xmlns="http://www.w3.org/2000/svg" xmlns:xlink="http://www.w3.org/1999/xlink" version="1.1" id="Capa_1" x="0px" y="0px" viewBox="0 0 512.001 512.001" style="enable-background:new 0 0 512.001 512.001;" xml:space="preserve" width="24px" height="24px"><g><g>
	<g>
		<polygon points="318.116,243.333 193.884,243.333 190.152,350 321.848,350   " data-original="#000000" class="active-path" data-old_color="#000000" fill="#525252"/>
	</g>
</g><g>
	<g>
		<polygon points="20.737,136.667 12.69,213.333 164.915,213.333 167.597,136.667   " data-original="#000000" class="active-path" data-old_color="#000000" fill="#525252"/>
	</g>
</g><g>
	<g>
		<polygon points="309.602,0 202.398,0 198.666,106.667 313.334,106.667   " data-original="#000000" class="active-path" data-old_color="#000000" fill="#525252"/>
	</g>
</g><g>
	<g>
		<polygon points="314.384,136.667 197.616,136.667 194.934,213.333 317.066,213.333   " data-original="#000000" class="active-path" data-old_color="#000000" fill="#525252"/>
	</g>
</g><g>
	<g>
		<path d="M9.541,243.333l-9.458,90.102C-0.846,342.293,6.11,350,15.001,350h145.132l3.732-106.667H9.541z" data-original="#000000" class="active-path" data-old_color="#000000" fill="#525252"/>
	</g>
</g><g>
	<g>
		<path d="M511.917,333.435l-9.458-90.102H348.135L351.867,350h145.131C505.905,350,512.844,342.277,511.917,333.435z" data-original="#000000" class="active-path" data-old_color="#000000" fill="#525252"/>
	</g>
</g><g>
	<g>
		<path d="M48.59,0c-7.678,0-14.116,5.798-14.918,13.435l-9.786,93.232h144.761L172.379,0H48.59z" data-original="#000000" class="active-path" data-old_color="#000000" fill="#525252"/>
	</g>
</g><g>
	<g>
		<path d="M478.328,13.435C477.526,5.798,471.088,0,463.41,0H339.621l3.732,106.667h144.761L478.328,13.435z" data-original="#000000" class="active-path" data-old_color="#000000" fill="#525252"/>
	</g>
</g><g>
	<g>
		<polygon points="491.263,136.667 344.403,136.667 347.086,213.333 499.31,213.333   " data-original="#000000" class="active-path" data-old_color="#000000" fill="#525252"/>
	</g>
</g><g>
	<g>
		<path d="M329,439.169h-58V380h-30v59.169h-58c-8.284,0-15,6.716-15,15V497c0,8.284,6.716,15,15,15h146c8.284,0,15-6.716,15-15    v-42.831C344,445.885,337.284,439.169,329,439.169z" data-original="#000000" class="active-path" data-old_color="#000000" fill="#525252"/>
	</g>
</g></g> </svg>
