<?xml version="1.0"?>
<svg xmlns="http://www.w3.org/2000/svg" height="24px" viewBox="0 0 512 512" width="24px"><g><path d="m366.964844 75.984375-74.738282-75.984375h-292.226562v151.96875h292.226562zm-336.972656 45.992187v-91.984374h249.664062l45.238281 45.992187-45.238281 45.992187zm0 0" data-original="#000000" class="active-path" data-old_color="#000000" fill="#BEBEBE"/><path d="m457.121094 256.949219-74.984375-74.984375h-382.136719v149.96875h382.136719zm-427.128906 44.988281v-89.980469h339.71875l44.992187 44.992188-44.992187 44.988281zm0 0" data-original="#000000" class="active-path" data-old_color="#000000" fill="#BEBEBE"/><path d="m441.390625 361.925781h-441.390625v149.96875h441.390625l70.609375-74.984375zm-12.957031 119.976563h-398.441406v-89.980469h398.441406l42.367187 44.988281zm0 0" data-original="#000000" class="active-path" data-old_color="#000000" fill="#BEBEBE"/><path d="m255.945312 97.195312-21.207031-21.207031 21.207031-21.207031 21.210938 21.207031zm0 0" data-original="#000000" class="active-path" data-old_color="#000000" fill="#BEBEBE"/><path d="m345.925781 278.160156-21.210937-21.207031 21.210937-21.210937 21.207031 21.210937zm0 0" data-original="#000000" class="active-path" data-old_color="#000000" fill="#BEBEBE"/><path d="m404.910156 458.125-21.207031-21.207031 21.207031-21.210938 21.210938 21.210938zm0 0" data-original="#000000" class="active-path" data-old_color="#000000" fill="#BEBEBE"/></g> </svg>
