<?xml version="1.0"?>
<svg xmlns="http://www.w3.org/2000/svg" xmlns:xlink="http://www.w3.org/1999/xlink" version="1.1" id="Capa_1" x="0px" y="0px" viewBox="0 0 512.001 512.001" style="enable-background:new 0 0 512.001 512.001;" xml:space="preserve" width="24px" height="24px"><g><g>
	<g>
		<path d="M511.917,333.435c-0.702-6.692-32.827-312.743-33.589-320C477.526,5.798,471.088,0,463.41,0H48.59    c-7.678,0-14.116,5.798-14.918,13.435L22.475,120.108c-0.002,0.016-0.003,0.032-0.005,0.047    c-0.976,9.299-21.406,203.932-22.387,213.279C-0.846,342.293,6.11,350,15.001,350H241v89.169h-58c-8.284,0-15,6.716-15,15V497    c0,8.284,6.716,15,15,15h146c8.284,0,15-6.716,15-15v-42.831c0-8.284-6.716-15-15-15h-58V350h225.999    C505.905,350,512.844,342.277,511.917,333.435z M201.348,30h109.303l2.682,76.667H198.666L201.348,30z M197.616,136.667h116.767    l2.682,76.666H194.934L197.616,136.667z M161.183,320H31.658l8.048-76.667h124.16L161.183,320z M164.916,213.333H42.855    l8.047-76.666h116.696L164.916,213.333z M168.647,106.667H54.05L62.098,30h109.231L168.647,106.667z M314,469.169V482H198v-12.831    H314z M191.202,320l2.682-76.667h124.232L320.798,320H191.202z M340.671,30h109.232l8.047,76.667H343.353L340.671,30z     M344.403,136.667h116.696l8.047,76.666h-122.06L344.403,136.667z M350.817,320l-2.682-76.667h124.16L480.342,320H350.817z" data-original="#000000" class="active-path" data-old_color="#000000" fill="#BEBEBE"/>
	</g>
</g></g> </svg>
