<svg id="Capa_1" data-name="Capa 1" xmlns="http://www.w3.org/2000/svg" viewBox="0 0 61 61">
    <defs>
        <style>
            .cls-1{fill:none;stroke:#000;stroke-miterlimit:10}
        </style>
    </defs>
    <title>
        panel unselec
    </title>
    <polygon class="cls-1" points="37.78 29.02 23.22 29.02 22.78 41.52 38.22 41.52 37.78 29.02"/>
    <polygon class="cls-1" points="1.99 25.5 19.83 25.5 20.14 16.52 2.93 16.52 1.99 25.5"/>
    <polygon class="cls-1" points="36.78 0.5 24.22 0.5 23.78 13 37.22 13 36.78 0.5"/>
    <polygon class="cls-1" points="37.34 16.52 23.66 16.52 23.34 25.5 37.66 25.5 37.34 16.52"/>
    <path class="cls-1" d="M3,41.07a1.77,1.77,0,0,0,1.75,2h17l.43-12.5H4.12Z" transform="translate(-2.5 -1.5)"/>
    <path class="cls-1" d="M63,41.07,61.88,30.52H43.8L44.23,43h17A1.76,1.76,0,0,0,63,41.07Z" transform="translate(-2.5 -1.5)"/>
    <path class="cls-1" d="M23.2,2H8.69A1.75,1.75,0,0,0,7,3.57L5.8,14.5h17Z" transform="translate(-2.5 -1.5)"/>
    <path class="cls-1" d="M60.2,14.5,59.05,3.57A1.75,1.75,0,0,0,57.31,2H42.8l.44,12.5Z" transform="translate(-2.5 -1.5)"/>
    <polygon class="cls-1" points="58.07 16.52 40.86 16.52 41.17 25.5 59.01 25.5 58.07 16.52"/>
    <path class="cls-1" d="M41.55,53.47H34.76V46.53H31.24v6.94H24.45a1.75,1.75,0,0,0-1.76,1.75v5A1.76,1.76,0,0,0,24.45,62h17.1a1.76,1.76,0,0,0,1.76-1.76v-5A1.75,1.75,0,0,0,41.55,53.47Z" transform="translate(-2.5 -1.5)"/>
</svg>
