<svg id="Capa_1" data-name="Capa 1" xmlns="http://www.w3.org/2000/svg" viewBox="0 0 100 100">
  <path fill="#525252" stroke="#8f8f8f" stroke-miterlimit="10" d="M88.6,82.81L81.55,71.46A33.94,33.94,0,0,1,76.5,54.13V44.19a27.29,27.29,0,0,0-20-26.57V10.51c0-4.37-3.13-7.93-7.5-7.93s-7.5,3.55-7.5,7.93v7.11c-12,3.42-19,14-19,26.57v9.94a34.23,34.23,0,0,1-5.29,17.33L10.16,82.8A1.72,1.72,0,0,0,10,84.65a1.66,1.66,0,0,0,1.6.85H86.9a1.86,1.86,0,0,0,1.72-.85A1.72,1.72,0,0,0,88.6,82.81Z"/>
  <path  fill="#525252" stroke="#8f8f8f" stroke-miterlimit="10" d="M36.78,89.5c2.24,4,7,7.93,12.48,7.93S59.5,93.5,61.74,89.5h-25Z"/></svg>
