<svg id="Capa_1" data-name="Capa 1" xmlns="http://www.w3.org/2000/svg" viewBox="0 0 100 100"><defs><style>.cls-1,.cls-2{fill:#525252;stroke:#8f8f8f;stroke-miterlimit:10;}.cls-1{stroke-width:0.1px;}</style></defs><title>Costo Selec</title><path class="cls-1" d="M28.34,14.93L30.91,16c-1.78,1.09-2.58,2.15-2.38,3.17s1.17,2,2.85,2.69A15.14,15.14,0,0,0,37,23c2.18,0.08,5.54-.54,10-1.82a14,14,0,0,1,2.57-.55,3,3,0,0,1,1.5.21c0.3,0.13,1.2.52-1.07,1.52a9.42,9.42,0,0,1-4.55.79,5.55,5.55,0,0,0-3.15.58l-1.37.87c-0.6.38-.72,0.87-0.32,1.29a3.72,3.72,0,0,0,2.29.83,24.34,24.34,0,0,0,9.91-1.15l3.46,1.51a6.36,6.36,0,0,0,4.45,0c1.23-.54,1.23-1.41,0-1.94l-3.58-1.56c1.57-1,2.4-2,2.46-3,0.07-1.17-.88-2.19-2.81-3a14.42,14.42,0,0,0-4.67-1.11,18.56,18.56,0,0,0-4.84.22c-1.47.28-3.71,0.84-6.65,1.66a12.61,12.61,0,0,1-2.58.54,2.69,2.69,0,0,1-1.07-.19c-1-.45-0.16-1,0.74-1.4a8.25,8.25,0,0,1,3.54-.69,4.83,4.83,0,0,0,3-.73L45,15.18a0.76,0.76,0,0,0-.07-1.33,4.76,4.76,0,0,0-2.61-.68,22.81,22.81,0,0,0-6.89,1L32.79,13a6.36,6.36,0,0,0-4.45,0C27.11,13.52,27.11,14.39,28.34,14.93Z"/><path class="cls-2" d="M82.57,28.81c0.21-.87.93-1.75,0.93-2.64V23.34c0-5.65-4.56-10.82-12.22-14.55-7.1-3.46-16.66-5.36-26.61-5.36S24.91,5.33,17.81,8.79C10.15,12.52,5.5,17.69,5.5,23.34v2.83c0,5.57,4,10.67,11.45,14.39a13.55,13.55,0,0,0-.45,2.63v0.52c-6,3.7-11,8.74-11,14.22v2.83c0,3.81,2.53,7.4,6.13,10.48-0.49,1.3-.13,2.64-0.13,4v2.83c0,5.65,4,10.82,11.61,14.55C30.22,96.09,39.47,98,49.42,98s18.72-1.91,25.82-5.36C82.9,88.9,86.5,83.74,86.5,78.08V75.26a12.84,12.84,0,0,0-4.63-10.48c0.49-1.3,1.63-2.65,1.63-4V60.24c7-3.7,10-8.74,10-14.22V43.19C93.5,37.62,90,32.53,82.57,28.81Zm-71-7.87c1.11-2.82,4.13-5.56,8.66-7.77C26.65,10,35.28,8.3,44.51,8.3S62.36,10,68.81,13.18c4.53,2.21,7.55,4.95,8.66,7.77-3.92,6.82-17.54,11.79-33,11.79S15.46,27.76,11.54,20.94Zm0,34.59c0.9-2.29,3.08-4.53,6.29-6.48,1.24,4.45,5.2,8.46,11.46,11.51,7.1,3.46,16.49,5.36,26.44,5.36,1,0,1.94,0,2.9-.06a67.68,67.68,0,0,1-14.12,1.46C29.08,67.33,15.46,62.36,11.54,55.54ZM82.25,72.86c-3.92,6.82-17.54,11.79-33,11.79-13.4,0-25.43-3.75-30.93-9.21,7.07,3.37,16.34,5.23,26.15,5.23s19.34-1.91,26.44-5.36A26.26,26.26,0,0,0,79.52,69,10.89,10.89,0,0,1,82.25,72.86ZM55.73,52.59c-13.47,0-25.56-3.79-31-9.29a68.3,68.3,0,0,0,19.79,2.78c9.95,0,19.34-1.91,26.44-5.36a24.54,24.54,0,0,0,9.51-7.47c4.29,2.17,7.17,4.82,8.24,7.55C84.78,47.62,71.15,52.59,55.73,52.59Z"/></svg>