<svg id="Capa_1" data-name="Capa 1" xmlns="http://www.w3.org/2000/svg" viewBox="0 0 100 100">
  <polygon fill="none" stroke="#525252" stroke-miterlimit="10" stroke-width="2px" points="65.42 24 52 24 52 34 66.79 34 65.42 24"/>
  <polygon fill="none" stroke="#525252" stroke-miterlimit="10" stroke-width="2px" points="71.19 59 52 59 52 68 72.56 68 71.19 59"/>
  <polygon fill="none" stroke="#525252" stroke-miterlimit="10" stroke-width="2px" points="67.34 37 52 37 52 44 68.72 44 67.34 37"/>
  <polygon fill="none" stroke="#525252" stroke-miterlimit="10" stroke-width="2px" points="48 24 35.72 24 34.12 34 48 34 48 24"/>
  <polygon fill="none" stroke="#525252" stroke-miterlimit="10" stroke-width="2px" points="69.26 48 52 48 52 56 70.64 56 69.26 48"/>
  <polygon fill="none" stroke="#525252" stroke-miterlimit="10" stroke-width="2px" points="94.71 68 92.19 59 74.44 59 75.81 68 94.71 68"/>
  <polygon fill="none" stroke="#525252" stroke-miterlimit="10" stroke-width="2px" points="87.66 44 85.14 37 70.59 37 71.97 44 87.66 44"/>
  <polygon fill="none" stroke="#525252" stroke-miterlimit="10" stroke-width="2px" points="68.67 24 70.04 34 84.13 34 81.62 24 68.67 24"/>
  <polygon fill="none" stroke="#525252" stroke-miterlimit="10" stroke-width="2px" points="91.18 56 88.67 48 72.52 48 73.89 56 91.18 56"/>
  <polygon fill="none" stroke="#525252" stroke-miterlimit="10" stroke-width="2px" points="32.45 24 19.53 24 16.78 34 30.85 34 32.45 24"/>
  <polygon fill="none" stroke="#525252" stroke-miterlimit="10" stroke-width="2px" points="61.64 95 39.21 95 27.38 95 25.78 97 75.07 97 73.47 95 61.64 95"/>
  <polygon fill="none" stroke="#525252" stroke-miterlimit="10" stroke-width="2px" points="48 44 48 37 33.51 37 32.14 44 48 44"/>
  <polygon fill="none" stroke="#525252" stroke-miterlimit="10" stroke-width="2px" points="5 77 44.02 77 56.84 77 95 77 95 70 5 70 5 77"/>
  <polygon fill="none" stroke="#525252" stroke-miterlimit="10" stroke-width="2px" points="26.42 59 8.66 59 6.15 68 25.04 68 26.42 59"/>
  <polygon fill="none" stroke="#525252" stroke-miterlimit="10" stroke-width="2px" points="45.17 79 41.43 90 59.42 90 55.68 79 45.17 79"/>
  <polygon fill="none" stroke="#525252" stroke-miterlimit="10" stroke-width="2px" points="28.29 68 48 68 48 59 29.67 59 28.29 68"/>
  <polygon fill="none" stroke="#525252" stroke-miterlimit="10" stroke-width="2px" points="48 48 31.59 48 30.22 56 48 56 48 48"/>
  <polygon fill="none" stroke="#525252" stroke-miterlimit="10" stroke-width="2px" points="28.34 48 12.19 48 9.67 56 26.97 56 28.34 48"/>
  <polygon fill="none" stroke="#525252" stroke-miterlimit="10" stroke-width="2px" points="30.26 37 15.71 37 13.2 44 28.89 44 30.26 37"/>
  <path fill="none" stroke="#525252" stroke-miterlimit="10" stroke-width="2px" d="M57,16.63l5.65,3.44a6.47,6.47,0,0,0-.6,1.93H82.79s0.05-.16.08-0.16a1.57,1.57,0,0,1,.31,0,1.26,1.26,0,0,1,.94.64,1.38,1.38,0,0,1,.16.27s0,0,0,.06l2.09,6.63a7.62,7.62,0,0,0,.75-2.21S87.24,28,87.28,28h6.41c0.88,0,1.6-1.62,1.6-2.5S94.57,23,93.69,23H87.28s-0.07.15-.11,0.15a12.28,12.28,0,0,0-.89-3.3,1.4,1.4,0,0,0,.2-0.05l5.43-3.19a1.6,1.6,0,1,0-1.63-2.75l-5.43,3.21-0.15.13a12.9,12.9,0,0,0-2.53-2.55l0.07-.09L85.46,9a1.6,1.6,0,1,0-2.78-1.6L79.48,13S78.93,13,78.92,13a10.41,10.41,0,0,0-3.92-.9V5.63C75,4.74,74.88,4,74,4s-1,.72-1,1.6v6.52a7.8,7.8,0,0,0-3.44.89L66.27,7.4a1.62,1.62,0,0,0-2.21-.59A1.61,1.61,0,0,0,63.47,9l3.25,5.64a12.79,12.79,0,0,0-2.46,2.47l-5.64-3.26A1.6,1.6,0,0,0,57,16.63Z"/></svg>
