<svg id="Capa_1" data-name="Capa 1" xmlns="http://www.w3.org/2000/svg" viewBox="0 0 100 100">
<polygon points="65.33 24.5 52.5 24.5 52.5 33.5 66.72 33.5 65.33 24.5"/>
<polygon fill="#525252" stroke="#8f8f8f" stroke-miterlimit="10" points="71.16 58.5 52.5 58.5 52.5 67.5 72.55 67.5 71.16 58.5"/>
<polygon fill="#525252" stroke="#8f8f8f" stroke-miterlimit="10" points="67.28 35.5 52.5 35.5 52.5 43.5 68.67 43.5 67.28 35.5"/>
<polygon fill="#525252" stroke="#8f8f8f" stroke-miterlimit="10" points="48.5 24.5 35.31 24.5 33.69 33.5 48.5 33.5 48.5 24.5"/>
<polygon fill="#525252" stroke="#8f8f8f" stroke-miterlimit="10" points="69.22 46.5 52.5 46.5 52.5 54.5 70.61 54.5 69.22 46.5"/>
<polygon fill="#525252" stroke="#8f8f8f" stroke-miterlimit="10" points="94.94 67.5 92.4 58.5 74.45 58.5 75.84 67.5 94.94 67.5"/>
<polygon fill="#525252" stroke="#8f8f8f" stroke-miterlimit="10" points="87.81 43.5 85.27 35.5 70.56 35.5 71.95 43.5 87.81 43.5"/>
<polygon fill="#525252" stroke="#8f8f8f" stroke-miterlimit="10" points="68.62 24.5 70.01 33.5 84.25 33.5 81.71 24.5 68.62 24.5"/>
<polygon fill="#525252" stroke="#8f8f8f" stroke-miterlimit="10" points="91.38 54.5 88.83 46.5 72.51 46.5 73.89 54.5 91.38 54.5"/>
<polygon fill="#525252" stroke="#8f8f8f" stroke-miterlimit="10" points="32.01 24.5 18.94 24.5 16.16 33.5 30.39 33.5 32.01 24.5"/>
<polygon fill="#525252" stroke="#8f8f8f" stroke-miterlimit="10" points="61.52 94.5 38.84 94.5 26.88 94.5 25.27 96.5 75.09 96.5 73.47 94.5 61.52 94.5"/>
<polygon fill="#525252" stroke="#8f8f8f" stroke-miterlimit="10" points="48.5 43.5 48.5 35.5 33.08 35.5 31.69 43.5 48.5 43.5"/>
<polygon fill="#525252" stroke="#8f8f8f" stroke-miterlimit="10" points="5.5 76.5 43.7 76.5 56.66 76.5 95.5 76.5 95.5 69.5 5.5 69.5 5.5 76.5"/>
<polygon fill="#525252" stroke="#8f8f8f" stroke-miterlimit="10" points="25.91 58.5 7.96 58.5 5.42 67.5 24.52 67.5 25.91 58.5"/>
<polygon fill="#525252" stroke="#8f8f8f" stroke-miterlimit="10" points="44.87 78.5 41.09 90.5 59.27 90.5 55.49 78.5 44.87 78.5"/>
<polygon fill="#525252" stroke="#8f8f8f" stroke-miterlimit="10" points="27.8 67.5 48.5 67.5 48.5 58.5 29.19 58.5 27.8 67.5"/>
<polygon fill="#525252" stroke="#8f8f8f" stroke-miterlimit="10" points="48.5 46.5 31.14 46.5 29.75 54.5 48.5 54.5 48.5 46.5"/>
<polygon fill="#525252" stroke="#8f8f8f" stroke-miterlimit="10" points="27.85 46.5 11.52 46.5 8.98 54.5 26.46 54.5 27.85 46.5"/>
<polygon fill="#525252" stroke="#8f8f8f" stroke-miterlimit="10" points="29.79 35.5 15.09 35.5 12.54 43.5 28.41 43.5 29.79 35.5"/>
<path fill="#525252" stroke="#8f8f8f" stroke-miterlimit="10" d="M56.83,16.22l5.71,2.9a3,3,0,0,0-.6,1.38h21s0.05,0.41.08,0.42a3,3,0,0,1,.31.26,1.46,1.46,0,0,1,1,.79,2,2,0,0,1,.16.35l0,0.09,2.11,6.72a11.85,11.85,0,0,0,.76-2.83s0.08,0.2.12,0.2h6.48a2,2,0,0,0,0-4H87.43s-0.07.23-.11,0.23a12.13,12.13,0,0,0-.9-3.29,1.38,1.38,0,0,0,.21,0l5.49-3.21a1.61,1.61,0,1,0-1.64-2.77L85,16.66l-0.15.14a13,13,0,0,0-2.56-2.57l0.07-.09,3.24-5.61A1.62,1.62,0,1,0,82.79,6.9l-3.24,5.61s0.19,0.06.17,0.09a13.43,13.43,0,0,0-3.22-.91V5.1a1.5,1.5,0,1,0-3,0v6.59a9.33,9.33,0,0,0-3.73.9L66.32,6.9A1.72,1.72,0,0,0,64,6.31a1.63,1.63,0,0,0-.63,2.21l3.27,5.7a13,13,0,0,0-2.5,2.49l-5.71-3.29A1.62,1.62,0,0,0,56.83,16.22Z"/></svg>
