<svg id="Capa_1" data-name="Capa 1" xmlns="http://www.w3.org/2000/svg" viewBox="0 0 100 100">
<path fill= "none" stroke="#525252"  stroke-miterlimit="10" stroke-width="0.5px" d="M14.75,35.63L26,42.93l-1.33,2-11.24-7.3Z"/>
<path fill= "none" stroke="#525252"  stroke-miterlimit="10" stroke-width="0.5px" d="M56.09,24.65l10.84,3.52-0.78,2.41L55.31,27.06Z"/>
<path fill= "none" stroke="#525252"  stroke-miterlimit="10" stroke-width="0.5px" d="M87.4,13.79l1.73,1.77L76.77,27.62,75,25.84Z"/>
<path fill= "none" stroke="#525252"  stroke-miterlimit="10" stroke-width="0.5px" d="M45.9,27.46l1.9,1.75L34.61,43.5l-1.9-1.75Z"/>
<path fill= "none" stroke="#525252"  stroke-miterlimit="10" stroke-width="2px" d="M2,52H15V95H2V52Z"/>
<path fill= "none" stroke="#525252"  stroke-miterlimit="10" stroke-width="2px" d="M23,67H34V95H23V67Z"/>
<path fill= "none" stroke="#525252"  stroke-miterlimit="10" stroke-width="2px" d="M45,43H56V95H45V43Z"/>
<path fill= "none" stroke="#525252"  stroke-miterlimit="10" stroke-width="2px" d="M65,50H77V95H65V50Z"/>
<path fill= "none" stroke="#525252"  stroke-miterlimit="10" stroke-width="2px" d="M86,31H98V95H86V31Z"/>
<path fill= "none" stroke="#525252"  stroke-miterlimit="10"  d="M14.79,33.25a5.88,5.88,0,1,1-5.88-5.88A5.88,5.88,0,0,1,14.79,33.25Z"/>
<path fill= "none" stroke="#525252"  stroke-miterlimit="10"  d="M98.28,10.64A5.88,5.88,0,1,1,92.4,4.76,5.88,5.88,0,0,1,98.28,10.64Z"/>
<path fill= "none" stroke="#525252"  stroke-miterlimit="10"  d="M77.41,31a5.88,5.88,0,1,1-5.88-5.88A5.88,5.88,0,0,1,77.41,31Z"/>
<path fill= "none" stroke="#525252"  stroke-miterlimit="10"  d="M56.54,24.21a5.88,5.88,0,1,1-5.88-5.88A5.88,5.88,0,0,1,56.54,24.21Z"/>
<path fill= "none" stroke="#525252"  stroke-miterlimit="10"  d="M35.66,46.82a5.88,5.88,0,1,1-5.88-5.88A5.88,5.88,0,0,1,35.66,46.82Z"/></svg>
