<svg id="Capa_1" data-name="Capa 1" xmlns="http://www.w3.org/2000/svg" viewBox="0 0 100 100"><defs><style>.cls-1,.cls-2{fill:#525252;stroke:#8f8f8f;stroke-miterlimit:10;}.cls-1{stroke-width:0.5px;}</style></defs><title>Historial Selec</title><path class="cls-1" d="M8.05,59.16a43.52,43.52,0,0,1-.72-5.91,1.55,1.55,0,0,0-3.09.17A46.5,46.5,0,0,0,5,59.75,1.54,1.54,0,0,0,6.53,61l0.29,0A1.54,1.54,0,0,0,8.05,59.16Z"/><path class="cls-1" d="M14.95,75.51a1.54,1.54,0,0,0-2.54,1.76,46.2,46.2,0,0,0,4,5,1.54,1.54,0,0,0,2.27-2.09A43.26,43.26,0,0,1,14.95,75.51Z"/><path class="cls-1" d="M5.75,48.7H5.88a1.54,1.54,0,0,0,1.54-1.42,42.76,42.76,0,0,1,.9-5.89,1.55,1.55,0,1,0-3-.68,46.27,46.27,0,0,0-1,6.31A1.54,1.54,0,0,0,5.75,48.7Z"/><path class="cls-2" d="M28.5,87.72c-1-1-3.64-2.2-5.18-3.47a1.75,1.75,0,0,0-2.34.21,1.54,1.54,0,0,0,.12,2.17,46.43,46.43,0,0,0,5.14,3.71,1.5,1.5,0,0,0,1.55.09A1.93,1.93,0,0,0,29,89.09a6.84,6.84,0,0,0-.46-1.37h0Z"/><path class="cls-1" d="M8,36.6a1.57,1.57,0,0,0,.54.1,1.54,1.54,0,0,0,1.44-1,42.11,42.11,0,0,1,1.78-4.08A1.54,1.54,0,0,0,9,30.24a46.41,46.41,0,0,0-1.91,4.37A1.54,1.54,0,0,0,8,36.6Z"/><path class="cls-1" d="M9.58,64.91a1.54,1.54,0,0,0-2.92,1,46.63,46.63,0,0,0,2.48,5.88A1.54,1.54,0,0,0,11.9,70.4,43.08,43.08,0,0,1,9.58,64.91Z"/><path class="cls-1" d="M38.71,92.5a43,43,0,0,1-5.6-2,1.54,1.54,0,0,0-1.24,2.83,46.57,46.57,0,0,0,6,2.16,1.59,1.59,0,0,0,.42.06,1.54,1.54,0,0,0,.42-3h0Z"/><path class="cls-1" d="M13,63.89a1.54,1.54,0,0,0,2.86-1.17,34.51,34.51,0,0,1-1.78-5.63,1.54,1.54,0,0,0-3,.67A37.77,37.77,0,0,0,13,63.89Z"/><path class="cls-1" d="M13.32,40.62a1.58,1.58,0,0,0,.46.07,1.54,1.54,0,0,0,1.47-1.08,37.14,37.14,0,0,1,2.21-5.49,1.54,1.54,0,0,0-2.76-1.39,40.25,40.25,0,0,0-2.4,5.95A1.54,1.54,0,0,0,13.32,40.62Z"/><path class="cls-2" d="M12.5,51.23v-0.3a37.28,37.28,0,0,1,.93-5.54,1.43,1.43,0,0,0-.31-1.46,1.34,1.34,0,0,0-1.43-.23,1.41,1.41,0,0,0-.83,1.23,39,39,0,0,0-.37,6V51.3a1.45,1.45,0,0,0,.38,1.08c0.29,0.28.18,0.44,0.58,0.43C12.32,52.79,12.5,52.09,12.5,51.23Z"/><path class="cls-1" d="M30.55,81.14A42.75,42.75,0,0,1,26,77.33a1.54,1.54,0,0,0-2.13,2.23,45.74,45.74,0,0,0,4.91,4.09A1.54,1.54,0,0,0,30.55,81.14Z"/><path class="cls-2" d="M41.06,85.5a12.42,12.42,0,0,1-5.46-1.75,1.65,1.65,0,0,0-2.08.92,1.69,1.69,0,0,0,.67,2.2,38.73,38.73,0,0,0,5.94,2.5c0.81,0.26,1.68-.66,1.94-1.47s-0.2-2.39-1-2.39h0Z"/><path class="cls-1" d="M21.71,75.09A1.54,1.54,0,0,0,22,72.92a43.88,43.88,0,0,1-3.4-4.9,1.54,1.54,0,1,0-2.65,1.58,47.14,47.14,0,0,0,3.63,5.25,1.54,1.54,0,0,0,2.17.24h0Z"/><path class="cls-2" d="M50.5,21.59c-0.85,0-2,.69-2,1.54V50.91A1.82,1.82,0,0,0,49.17,52L64.71,67.43a1.61,1.61,0,0,0,2.22,0,1.57,1.57,0,0,0,.29-2.16l-14.71-15V23.13C52.5,22.28,51.35,21.59,50.5,21.59Z"/><path class="cls-2" d="M50.48,6.16a44.58,44.58,0,0,0-25.23,7.78L18.07,6.16,15.89,22.5,15,29.31l3.93-.56,17.67-2.53-7.08-7.67a38.58,38.58,0,1,1,21,71H47.39l-3.09,6h6.17A44.67,44.67,0,1,0,50.48,6.16Z"/></svg>