<svg id="Capa_1" data-name="Capa 1" xmlns="http://www.w3.org/2000/svg" viewBox="0 0 100 100"><defs><style>.cls-1,.cls-2{fill:#525252;stroke:#8f8f8f;stroke-miterlimit:10;}.cls-2{stroke-width:0.5px;}</style></defs><title>Huella de carbono Selec</title><path class="cls-1" d="M84.5,44V41.89c0-1.21-2.23-3.39-3.44-3.39H81l-0.3-5h0.37c1.21,0,3.44-.87,3.44-2.08V29.3c0-1.21-2.23-2.8-3.44-2.8H68.63c-1.21,0-2.13,1.58-2.13,2.8v2.12a2,2,0,0,0,2.13,2.08h0.2l-0.26,6.13a2.23,2.23,0,0,0-2.07,2.26V44c0,1.07.74,1.39,1.76,1.58l-2,38.91H54.46L53.17,53.4c1.05-.17,2.33-0.5,2.33-1.59V49.68c0-1.21-1.93-2.18-3.14-2.18h0L52,40.5h0.35c1.21,0,3.14-.07,3.14-1.29V37.09c0-1.21-1.93-2.59-3.14-2.59H39.93a2.77,2.77,0,0,0-2.43,2.59v2.12c0,1.21,1.21,1.29,2.43,1.29h0.19L39.67,47a2.78,2.78,0,0,0-2.17,2.65V51.8c0,1,.84,1.33,1.81,1.56L37.67,84.5h-12l-1.2-23.33c1-.22,2-0.52,2-1.57V57.48A2.38,2.38,0,0,0,24,55.42L23.33,49.5h0.33c1.21,0,2.84-1.28,2.84-2.49V44.89c0-1.21-1.63-2.39-2.84-2.39H11.23C10,42.5,9.5,43.67,9.5,44.89V47c0,1.21.52,2.49,1.73,2.49h0.16l-0.15,5.93a1.88,1.88,0,0,0-1.74,2V59.6a2,2,0,0,0,1.33,2.11L8.48,96.79A1.52,1.52,0,0,0,9,98.11a1.83,1.83,0,0,0,1.5.39H81.63a2,2,0,0,0,1.56-.39,1.83,1.83,0,0,0,.59-1.45L81.92,46.13C83,46,84.5,45.14,84.5,44ZM52.36,40.31h0Zm-28.7,7.8h0ZM81.63,98h0Z"/><path class="cls-2" d="M17.2,39a4.3,4.3,0,0,0,3.94-2.59,6.29,6.29,0,0,0,6-5.08A7,7,0,1,0,19.73,24a6.3,6.3,0,0,0-5,7.23A4.3,4.3,0,0,0,17.2,39Z"/><path class="cls-2" d="M45.9,31.46a4.3,4.3,0,0,0,3.94-2.59,6.29,6.29,0,0,0,6-5.08,7,7,0,1,0-7.39-7.39,6.3,6.3,0,0,0-5,7.23,4.32,4.32,0,0,0-.57.48A4.3,4.3,0,0,0,45.9,31.46Z"/><path class="cls-2" d="M89.25,3.9A7,7,0,0,0,77.33,8.43a6.29,6.29,0,0,0-5,7.23,4.3,4.3,0,1,0,6.41,5.23,6.29,6.29,0,0,0,6-5.08A7,7,0,0,0,89.25,3.9Z"/></svg>