<svg id="Capa_1" data-name="Capa 1" xmlns="http://www.w3.org/2000/svg" viewBox="0 0 100 100"><defs><style>.cls-1{fill:none;stroke:#525252;stroke-miterlimit:10;stroke-width:2px;}</style></defs><title>Huella de carbono</title><path class="cls-1" d="M83,42.75V40.66c0-1.2-.23-1.66-1.43-1.66H81.5L81.2,32h0.36c1.2,0,1.43-.48,1.43-1.68V28.23C83,27,82.77,26,81.57,26H69.3A2.33,2.33,0,0,0,67,28.23v2.09c0,1.2,1.1,1.68,2.3,1.68h0.2l-0.35,6.24A2.47,2.47,0,0,0,67,40.66v2.09A2.3,2.3,0,0,0,68.83,45L67,84H55.3L53.37,52.66A2.08,2.08,0,0,0,55,50.45V48.36c0-1.2-.57-2.36-1.77-2.36h0l-0.33-5h0.35c1.2,0,1.77-1.78,1.77-3V35.92c0-1.2-.57-2.92-1.77-2.92H41a3.72,3.72,0,0,0-3,2.92V38a3.79,3.79,0,0,0,3,3h0.18l-0.72,5.59c-1.13.08-2.42,0.62-2.42,1.76v2.09a2.64,2.64,0,0,0,2.07,2.18L38.72,84H26.87L25.33,60.33A2.22,2.22,0,0,0,27,58.15V56.05a2.1,2.1,0,0,0-2.08-2.12L24.57,48H24.9A2.22,2.22,0,0,0,27,45.71V43.62c0-1.2-.91-1.62-2.1-1.62H12.62c-1.2,0-2.62.42-2.62,1.62v2.09A2.7,2.7,0,0,0,12.62,48h0.16l-0.61,5.94A2.34,2.34,0,0,0,10,56.05v2.09a2.4,2.4,0,0,0,1.77,2.08L9.68,94.86a2,2,0,0,0,.62,1.53,2.2,2.2,0,0,0,1.6.61H82.14a2,2,0,0,0,2.12-2.15l-2.82-50A1.88,1.88,0,0,0,83,42.75ZM53.23,39.11h0ZM24.9,46.8h0ZM82.14,96h0Z"/><path class="cls-1" d="M18.52,37.81a4.25,4.25,0,0,0,3.89-2.56,6.21,6.21,0,0,0,5.9-5,6.9,6.9,0,1,0-7.3-7.3,6.22,6.22,0,0,0-4.93,7.14A4.25,4.25,0,0,0,18.52,37.81Z"/><path class="cls-1" d="M46.85,30.36a4.25,4.25,0,0,0,3.89-2.56,6.21,6.21,0,0,0,5.9-5,6.9,6.9,0,1,0-7.3-7.3,6.22,6.22,0,0,0-4.93,7.14,4.27,4.27,0,0,0-.57.48A4.25,4.25,0,0,0,46.85,30.36Z"/><path class="cls-1" d="M89.65,3.16A6.9,6.9,0,0,0,77.89,7.62,6.22,6.22,0,0,0,73,14.77a4.24,4.24,0,1,0,6.33,5.17,6.21,6.21,0,0,0,5.9-5A6.9,6.9,0,0,0,89.65,3.16Z"/></svg>