<svg id="Capa_1" data-name="Capa 1" xmlns="http://www.w3.org/2000/svg" viewBox="0 0 100 100">
<path fill= "none" stroke="#475758"  stroke-miterlimit="10" stroke-width="5px" d="M50,3.55A46.45,46.45,0,1,0,96.45,50,46.44,46.44,0,0,0,50,3.55h0Zm9.68,72c-2.4.94-4.3,1.65-5.72,2.15a14.87,14.87,0,0,1-5,.75,9.85,9.85,0,0,1-6.76-2.13,6.8,6.8,0,0,1-2.4-5.38A20.39,20.39,0,0,1,40,68.34a30.28,30.28,0,0,1,.57-3l3-10.58c0.27-1,.5-2,0.67-2.86a13.36,13.36,0,0,0,.27-2.5,3.82,3.82,0,0,0-.85-2.82,4.67,4.67,0,0,0-3.18-.79,8.73,8.73,0,0,0-2.38.34c-0.81.25-1.49,0.48-2.07,0.69l0.79-3.24c2-.81,3.84-1.48,5.62-2.05a16.43,16.43,0,0,1,5.07-.87,9.65,9.65,0,0,1,6.64,2.09A6.91,6.91,0,0,1,56.5,48.2c0,0.46-.06,1.27-0.16,2.42a16.52,16.52,0,0,1-.59,3.19l-3,10.54c-0.25.85-.46,1.82-0.67,2.9a15.24,15.24,0,0,0-.29,2.46,3.56,3.56,0,0,0,.94,2.86,5.21,5.21,0,0,0,3.26.77,9.45,9.45,0,0,0,2.46-.38,14.16,14.16,0,0,0,2-.67ZM59.15,32.77a7.5,7.5,0,0,1-10.06,0A6.22,6.22,0,0,1,47,28.07a6.28,6.28,0,0,1,2.09-4.71,7.5,7.5,0,0,1,10.06,0,6.26,6.26,0,0,1,2.07,4.71,6.2,6.2,0,0,1-2.07,4.7h0Zm0,0"/></svg>
