<svg id="Capa_1" data-name="Capa 1" xmlns="http://www.w3.org/2000/svg" viewBox="0 0 100 100">
  <path fill="#525252" stroke="#475758" stroke-miterlimit="10" d="M50,4.46A46.18,46.18,0,1,0,96.23,50.62,46.17,46.17,0,0,0,50,4.46h0ZM59.66,76c-2.38.93-4.27,1.64-5.69,2.14A14.79,14.79,0,0,1,49,78.9a9.79,9.79,0,0,1-6.72-2.12,6.76,6.76,0,0,1-2.38-5.34,20.27,20.27,0,0,1,.17-2.57,30.1,30.1,0,0,1,.57-3l3-10.51c0.26-1,.49-2,0.66-2.84a13.28,13.28,0,0,0,.27-2.48,3.8,3.8,0,0,0-.84-2.8,4.64,4.64,0,0,0-3.17-.78,8.68,8.68,0,0,0-2.37.34c-0.8.25-1.49,0.48-2.06,0.69L37,44.29c1.94-.8,3.82-1.47,5.59-2a16.33,16.33,0,0,1,5-.86,9.59,9.59,0,0,1,6.6,2.08,6.87,6.87,0,0,1,2.33,5.38c0,0.46-.06,1.26-0.16,2.4a16.42,16.42,0,0,1-.59,3.17l-3,10.47c-0.25.84-.46,1.81-0.67,2.88a15.15,15.15,0,0,0-.28,2.44,3.54,3.54,0,0,0,.93,2.84,5.18,5.18,0,0,0,3.24.76,9.39,9.39,0,0,0,2.44-.38,14.07,14.07,0,0,0,2-.66ZM59.15,33.5a7.46,7.46,0,0,1-10,0,6.18,6.18,0,0,1-2.08-4.68,6.24,6.24,0,0,1,2.08-4.68,7.46,7.46,0,0,1,10,0,6.23,6.23,0,0,1,2.06,4.68,6.16,6.16,0,0,1-2.06,4.68h0Zm0,0"/></svg>
