<svg id="Capa_1" data-name="Capa 1" xmlns="http://www.w3.org/2000/svg" viewBox="0 0 100 100">
<g id="exit-to-app">
<path fill="none" stroke="#525252" stroke-miterlimit="10" stroke-width="2px" d="M40.73,69.27L48,76.42l25.9-25.95L48,24.55l-7.25,7.62L54.19,46H3V56H54.19ZM86.83,4H14.31C8.61,4,3,8.47,3,14.17V36H13V14H85V86H13V66H3V86.69C3,92.38,8.61,98,14.31,98H86.83C92.52,98,97,92.38,97,86.69V14.17A10.07,10.07,0,0,0,86.83,4Z"/></g>
<g id="exit-to-app-2" data-name="exit-to-app">
<path fill="none" stroke="#525252" stroke-miterlimit="10" stroke-width="2px" d="M40.73,69.27L48,76.42l25.9-25.95L48,24.55l-7.25,7.62L54.19,46H3V56H54.19Z"/></g></svg>
